solid OpenSCAD_Model
  facet normal -1 0 0
    outer loop
      vertex -7 -7 -2
      vertex -7 7 2
      vertex -7 7 -2
    endloop
  endfacet
  facet normal -1 -0 0
    outer loop
      vertex -7 7 2
      vertex -7 -7 -2
      vertex -7 -7 2
    endloop
  endfacet
  facet normal 0 0 1
    outer loop
      vertex -3 7 2
      vertex -5 5 2
      vertex -3 5 2
    endloop
  endfacet
  facet normal 0 0 1
    outer loop
      vertex -5 5 2
      vertex -7 7 2
      vertex -5 -5 2
    endloop
  endfacet
  facet normal -0 0 1
    outer loop
      vertex -7 7 2
      vertex -5 5 2
      vertex -3 7 2
    endloop
  endfacet
  facet normal 0 0 1
    outer loop
      vertex 5 -5 2
      vertex 3 -7 2
      vertex 5 -10 2
    endloop
  endfacet
  facet normal -0 0 1
    outer loop
      vertex -5 -5 2
      vertex 3 -7 2
      vertex 5 -5 2
    endloop
  endfacet
  facet normal 0 0 1
    outer loop
      vertex -5 -5 2
      vertex -7 -7 2
      vertex 3 -7 2
    endloop
  endfacet
  facet normal 0 0 1
    outer loop
      vertex -7 -7 2
      vertex -5 -5 2
      vertex -7 7 2
    endloop
  endfacet
  facet normal 0 0 1
    outer loop
      vertex 9 -10 2
      vertex 11 11 2
      vertex 9 11 2
    endloop
  endfacet
  facet normal 0 0 1
    outer loop
      vertex 11 11 2
      vertex 9 -10 2
      vertex 11 -12 2
    endloop
  endfacet
  facet normal -0 0 1
    outer loop
      vertex 5 -10 2
      vertex 11 -12 2
      vertex 9 -10 2
    endloop
  endfacet
  facet normal 0 0 1
    outer loop
      vertex 5 -10 2
      vertex 3 -12 2
      vertex 11 -12 2
    endloop
  endfacet
  facet normal 0 0 1
    outer loop
      vertex 3 -12 2
      vertex 5 -10 2
      vertex 3 -7 2
    endloop
  endfacet
  facet normal 0 1 -0
    outer loop
      vertex -3 7 -2
      vertex -7 7 2
      vertex -3 7 2
    endloop
  endfacet
  facet normal 0 1 0
    outer loop
      vertex -7 7 2
      vertex -3 7 -2
      vertex -7 7 -2
    endloop
  endfacet
  facet normal 0 0 -1
    outer loop
      vertex 11 -12 -2
      vertex 9 -10 -2
      vertex 11 11 -2
    endloop
  endfacet
  facet normal 0 0 -1
    outer loop
      vertex 11 -12 -2
      vertex 5 -10 -2
      vertex 9 -10 -2
    endloop
  endfacet
  facet normal 0 0 -1
    outer loop
      vertex 3 -12 -2
      vertex 5 -10 -2
      vertex 11 -12 -2
    endloop
  endfacet
  facet normal 0 0 -1
    outer loop
      vertex 3 -7 -2
      vertex 5 -10 -2
      vertex 3 -12 -2
    endloop
  endfacet
  facet normal 0 0 -1
    outer loop
      vertex 5 -10 -2
      vertex 3 -7 -2
      vertex 5 -5 -2
    endloop
  endfacet
  facet normal 0 0 -1
    outer loop
      vertex 3 -7 -2
      vertex -5 -5 -2
      vertex 5 -5 -2
    endloop
  endfacet
  facet normal -0 0 -1
    outer loop
      vertex -5 -5 -2
      vertex -7 -7 -2
      vertex -5 5 -2
    endloop
  endfacet
  facet normal 0 0 -1
    outer loop
      vertex -7 -7 -2
      vertex -5 -5 -2
      vertex 3 -7 -2
    endloop
  endfacet
  facet normal -0 0 -1
    outer loop
      vertex 11 11 -2
      vertex 9 -10 -2
      vertex 9 11 -2
    endloop
  endfacet
  facet normal 0 0 -1
    outer loop
      vertex -5 5 -2
      vertex -3 7 -2
      vertex -3 5 -2
    endloop
  endfacet
  facet normal 0 0 -1
    outer loop
      vertex -5 5 -2
      vertex -7 7 -2
      vertex -3 7 -2
    endloop
  endfacet
  facet normal 0 0 -1
    outer loop
      vertex -7 7 -2
      vertex -5 5 -2
      vertex -7 -7 -2
    endloop
  endfacet
  facet normal 0 -1 0
    outer loop
      vertex -7 -7 -2
      vertex 3 -7 2
      vertex -7 -7 2
    endloop
  endfacet
  facet normal 0 -1 -0
    outer loop
      vertex 3 -7 2
      vertex -7 -7 -2
      vertex 3 -7 -2
    endloop
  endfacet
  facet normal -1 0 0
    outer loop
      vertex 3 -12 -2
      vertex 3 -7 2
      vertex 3 -7 -2
    endloop
  endfacet
  facet normal -1 -0 0
    outer loop
      vertex 3 -7 2
      vertex 3 -12 -2
      vertex 3 -12 2
    endloop
  endfacet
  facet normal 1 -0 0
    outer loop
      vertex 11 -12 2
      vertex 11 11 -2
      vertex 11 11 2
    endloop
  endfacet
  facet normal 1 0 0
    outer loop
      vertex 11 11 -2
      vertex 11 -12 2
      vertex 11 -12 -2
    endloop
  endfacet
  facet normal 0 -1 0
    outer loop
      vertex 3 -12 -2
      vertex 11 -12 2
      vertex 3 -12 2
    endloop
  endfacet
  facet normal 0 -1 -0
    outer loop
      vertex 11 -12 2
      vertex 3 -12 -2
      vertex 11 -12 -2
    endloop
  endfacet
  facet normal 0 1 -0
    outer loop
      vertex 11 11 -2
      vertex 9 11 2
      vertex 11 11 2
    endloop
  endfacet
  facet normal 0 1 0
    outer loop
      vertex 9 11 2
      vertex 11 11 -2
      vertex 9 11 -2
    endloop
  endfacet
  facet normal 1 -0 0
    outer loop
      vertex -5 -5 2
      vertex -5 5 -2
      vertex -5 5 2
    endloop
  endfacet
  facet normal 1 0 0
    outer loop
      vertex -5 5 -2
      vertex -5 -5 2
      vertex -5 -5 -2
    endloop
  endfacet
  facet normal 1 -0 0
    outer loop
      vertex 5 -10 2
      vertex 5 -5 -2
      vertex 5 -5 2
    endloop
  endfacet
  facet normal 1 0 0
    outer loop
      vertex 5 -5 -2
      vertex 5 -10 2
      vertex 5 -10 -2
    endloop
  endfacet
  facet normal 0 1 -0
    outer loop
      vertex 5 -5 -2
      vertex -5 -5 2
      vertex 5 -5 2
    endloop
  endfacet
  facet normal 0 1 0
    outer loop
      vertex -5 -5 2
      vertex 5 -5 -2
      vertex -5 -5 -2
    endloop
  endfacet
  facet normal 0 -1 0
    outer loop
      vertex -5 5 -2
      vertex -3 5 2
      vertex -5 5 2
    endloop
  endfacet
  facet normal 0 -1 -0
    outer loop
      vertex -3 5 2
      vertex -5 5 -2
      vertex -3 5 -2
    endloop
  endfacet
  facet normal -1 0 0
    outer loop
      vertex 9 -10 -2
      vertex 9 11 2
      vertex 9 11 -2
    endloop
  endfacet
  facet normal -1 -0 0
    outer loop
      vertex 9 11 2
      vertex 9 -10 -2
      vertex 9 -10 2
    endloop
  endfacet
  facet normal 0 1 -0
    outer loop
      vertex 9 -10 -2
      vertex 5 -10 2
      vertex 9 -10 2
    endloop
  endfacet
  facet normal 0 1 0
    outer loop
      vertex 5 -10 2
      vertex 9 -10 -2
      vertex 5 -10 -2
    endloop
  endfacet
  facet normal 1 -0 0
    outer loop
      vertex -3 5 2
      vertex -3 7 -2
      vertex -3 7 2
    endloop
  endfacet
  facet normal 1 0 0
    outer loop
      vertex -3 7 -2
      vertex -3 5 2
      vertex -3 5 -2
    endloop
  endfacet
endsolid OpenSCAD_Model
