solid OpenSCAD_Model
  facet normal -1 0 0
    outer loop
      vertex -7 -7 -2
      vertex -7 7 2
      vertex -7 7 -2
    endloop
  endfacet
  facet normal -1 -0 0
    outer loop
      vertex -7 7 2
      vertex -7 -7 -2
      vertex -7 -7 2
    endloop
  endfacet
  facet normal 0 0 1
    outer loop
      vertex -3 7 2
      vertex -5 5 2
      vertex -3 5 2
    endloop
  endfacet
  facet normal 0 0 1
    outer loop
      vertex -5 5 2
      vertex -7 7 2
      vertex -5 -5 2
    endloop
  endfacet
  facet normal -0 0 1
    outer loop
      vertex -7 7 2
      vertex -5 5 2
      vertex -3 7 2
    endloop
  endfacet
  facet normal 0 0 1
    outer loop
      vertex 5 -5 2
      vertex 3 -7 2
      vertex 5 -9 2
    endloop
  endfacet
  facet normal -0 0 1
    outer loop
      vertex -5 -5 2
      vertex 3 -7 2
      vertex 5 -5 2
    endloop
  endfacet
  facet normal 0 0 1
    outer loop
      vertex -5 -5 2
      vertex -7 -7 2
      vertex 3 -7 2
    endloop
  endfacet
  facet normal 0 0 1
    outer loop
      vertex -7 -7 2
      vertex -5 -5 2
      vertex -7 7 2
    endloop
  endfacet
  facet normal 0 0 1
    outer loop
      vertex 10 -9 2
      vertex 12 11 2
      vertex 10 11 2
    endloop
  endfacet
  facet normal 0 0 1
    outer loop
      vertex 12 11 2
      vertex 10 -9 2
      vertex 12 -11 2
    endloop
  endfacet
  facet normal -0 0 1
    outer loop
      vertex 5 -9 2
      vertex 12 -11 2
      vertex 10 -9 2
    endloop
  endfacet
  facet normal 0 0 1
    outer loop
      vertex 5 -9 2
      vertex 3 -11 2
      vertex 12 -11 2
    endloop
  endfacet
  facet normal 0 0 1
    outer loop
      vertex 3 -11 2
      vertex 5 -9 2
      vertex 3 -7 2
    endloop
  endfacet
  facet normal 0 1 -0
    outer loop
      vertex -3 7 -2
      vertex -7 7 2
      vertex -3 7 2
    endloop
  endfacet
  facet normal 0 1 0
    outer loop
      vertex -7 7 2
      vertex -3 7 -2
      vertex -7 7 -2
    endloop
  endfacet
  facet normal 0 0 -1
    outer loop
      vertex 12 -11 -2
      vertex 10 -9 -2
      vertex 12 11 -2
    endloop
  endfacet
  facet normal 0 0 -1
    outer loop
      vertex 12 -11 -2
      vertex 5 -9 -2
      vertex 10 -9 -2
    endloop
  endfacet
  facet normal 0 0 -1
    outer loop
      vertex 3 -11 -2
      vertex 5 -9 -2
      vertex 12 -11 -2
    endloop
  endfacet
  facet normal 0 0 -1
    outer loop
      vertex 3 -7 -2
      vertex 5 -9 -2
      vertex 3 -11 -2
    endloop
  endfacet
  facet normal 0 0 -1
    outer loop
      vertex 5 -9 -2
      vertex 3 -7 -2
      vertex 5 -5 -2
    endloop
  endfacet
  facet normal 0 0 -1
    outer loop
      vertex 3 -7 -2
      vertex -5 -5 -2
      vertex 5 -5 -2
    endloop
  endfacet
  facet normal -0 0 -1
    outer loop
      vertex -5 -5 -2
      vertex -7 -7 -2
      vertex -5 5 -2
    endloop
  endfacet
  facet normal 0 0 -1
    outer loop
      vertex -7 -7 -2
      vertex -5 -5 -2
      vertex 3 -7 -2
    endloop
  endfacet
  facet normal -0 0 -1
    outer loop
      vertex 12 11 -2
      vertex 10 -9 -2
      vertex 10 11 -2
    endloop
  endfacet
  facet normal 0 0 -1
    outer loop
      vertex -5 5 -2
      vertex -3 7 -2
      vertex -3 5 -2
    endloop
  endfacet
  facet normal 0 0 -1
    outer loop
      vertex -5 5 -2
      vertex -7 7 -2
      vertex -3 7 -2
    endloop
  endfacet
  facet normal 0 0 -1
    outer loop
      vertex -7 7 -2
      vertex -5 5 -2
      vertex -7 -7 -2
    endloop
  endfacet
  facet normal 0 -1 0
    outer loop
      vertex -7 -7 -2
      vertex 3 -7 2
      vertex -7 -7 2
    endloop
  endfacet
  facet normal 0 -1 -0
    outer loop
      vertex 3 -7 2
      vertex -7 -7 -2
      vertex 3 -7 -2
    endloop
  endfacet
  facet normal -1 0 0
    outer loop
      vertex 3 -11 -2
      vertex 3 -7 2
      vertex 3 -7 -2
    endloop
  endfacet
  facet normal -1 -0 0
    outer loop
      vertex 3 -7 2
      vertex 3 -11 -2
      vertex 3 -11 2
    endloop
  endfacet
  facet normal 1 -0 0
    outer loop
      vertex 12 -11 2
      vertex 12 11 -2
      vertex 12 11 2
    endloop
  endfacet
  facet normal 1 0 0
    outer loop
      vertex 12 11 -2
      vertex 12 -11 2
      vertex 12 -11 -2
    endloop
  endfacet
  facet normal 0 1 -0
    outer loop
      vertex 12 11 -2
      vertex 10 11 2
      vertex 12 11 2
    endloop
  endfacet
  facet normal 0 1 0
    outer loop
      vertex 10 11 2
      vertex 12 11 -2
      vertex 10 11 -2
    endloop
  endfacet
  facet normal 0 -1 0
    outer loop
      vertex 3 -11 -2
      vertex 12 -11 2
      vertex 3 -11 2
    endloop
  endfacet
  facet normal 0 -1 -0
    outer loop
      vertex 12 -11 2
      vertex 3 -11 -2
      vertex 12 -11 -2
    endloop
  endfacet
  facet normal 1 -0 0
    outer loop
      vertex -5 -5 2
      vertex -5 5 -2
      vertex -5 5 2
    endloop
  endfacet
  facet normal 1 0 0
    outer loop
      vertex -5 5 -2
      vertex -5 -5 2
      vertex -5 -5 -2
    endloop
  endfacet
  facet normal 1 -0 0
    outer loop
      vertex 5 -9 2
      vertex 5 -5 -2
      vertex 5 -5 2
    endloop
  endfacet
  facet normal 1 0 0
    outer loop
      vertex 5 -5 -2
      vertex 5 -9 2
      vertex 5 -9 -2
    endloop
  endfacet
  facet normal 0 1 -0
    outer loop
      vertex 5 -5 -2
      vertex -5 -5 2
      vertex 5 -5 2
    endloop
  endfacet
  facet normal 0 1 0
    outer loop
      vertex -5 -5 2
      vertex 5 -5 -2
      vertex -5 -5 -2
    endloop
  endfacet
  facet normal 0 -1 0
    outer loop
      vertex -5 5 -2
      vertex -3 5 2
      vertex -5 5 2
    endloop
  endfacet
  facet normal 0 -1 -0
    outer loop
      vertex -3 5 2
      vertex -5 5 -2
      vertex -3 5 -2
    endloop
  endfacet
  facet normal -1 0 0
    outer loop
      vertex 10 -9 -2
      vertex 10 11 2
      vertex 10 11 -2
    endloop
  endfacet
  facet normal -1 -0 0
    outer loop
      vertex 10 11 2
      vertex 10 -9 -2
      vertex 10 -9 2
    endloop
  endfacet
  facet normal 0 1 -0
    outer loop
      vertex 10 -9 -2
      vertex 5 -9 2
      vertex 10 -9 2
    endloop
  endfacet
  facet normal 0 1 0
    outer loop
      vertex 5 -9 2
      vertex 10 -9 -2
      vertex 5 -9 -2
    endloop
  endfacet
  facet normal 1 -0 0
    outer loop
      vertex -3 5 2
      vertex -3 7 -2
      vertex -3 7 2
    endloop
  endfacet
  facet normal 1 0 0
    outer loop
      vertex -3 7 -2
      vertex -3 5 2
      vertex -3 5 -2
    endloop
  endfacet
endsolid OpenSCAD_Model
